<svg xmlns="http://www.w3.org/2000/svg" width="22" height="22" viewBox="0 0 22 22">
    <g fill="none" fill-rule="evenodd">
        <path fill="#000" d="M22 11.067C22 4.955 17.075 0 11 0S0 4.955 0 11.067C0 16.591 4.023 21.17 9.281 22v-7.734H6.488v-3.199h2.793V8.63c0-2.774 1.642-4.306 4.155-4.306 1.204 0 2.462.216 2.462.216v2.724h-1.387c-1.366 0-1.792.853-1.792 1.728v2.076h3.05l-.487 3.2h-2.563V22C17.977 21.17 22 16.591 22 11.067"/>
        <path fill="#FFF" d="M15.345 14.049l.518-3.233h-3.242V8.718c0-.885.453-1.747 1.905-1.747H16V4.218S14.662 4 13.383 4c-2.67 0-4.415 1.548-4.415 4.351v2.465H6v3.233h2.968v7.815c.595.09 1.205.136 1.827.136.62 0 1.23-.047 1.826-.136V14.05h2.724z"/>
    </g>
</svg>
