<svg xmlns="http://www.w3.org/2000/svg" xmlns:xlink="http://www.w3.org/1999/xlink" width="24" height="19" viewBox="0 0 24 19">
    <defs>
        <path id="prefix__a" d="M0 0L24 0 24 19 0 19z"/>
    </defs>
    <g fill="none" fill-rule="evenodd">
        <mask id="prefix__b" fill="#fff">
            <use xlink:href="#prefix__a"/>
        </mask>
        <path fill="#000" d="M21.17 3.005c1.018-.594 1.8-1.535 2.166-2.653-.95.548-2.007.947-3.127 1.162C19.31.581 18.03 0 16.615 0c-2.72 0-4.925 2.146-4.925 4.796 0 .375.045.742.13 1.093C7.727 5.69 4.1 3.78 1.67.877c-.425.71-.665 1.534-.665 2.412 0 1.664.867 3.132 2.19 3.994-.808-.025-1.568-.242-2.232-.601v.06c0 2.325 1.698 4.262 3.949 4.705-.412.11-.848.168-1.296.168-.318 0-.627-.03-.928-.088.628 1.905 2.447 3.295 4.6 3.333-1.684 1.287-3.807 2.052-6.115 2.052-.399 0-.79-.022-1.173-.068C2.177 18.207 4.766 19 7.547 19c9.057 0 14.01-7.309 14.01-13.647 0-.207-.005-.417-.013-.621.962-.676 1.796-1.521 2.456-2.484-.885.383-1.833.64-2.83.757z" mask="url(#prefix__b)"/>
    </g>
</svg>
